<mxfile modified="2022-05-04T04:45:31.468Z" host="app.diagrams.net" agent="5.0 (Windows NT 10.0; Win64; x64) AppleWebKit/537.36 (KHTML, like Gecko) Chrome/100.0.4896.127 Safari/537.36 Edg/100.0.1185.50" etag="7R8cQfTsavt8bGDETvIl" compressed="false" version="17.5.0" type="google">
  <diagram id="mh38uU_SkPX1b3DODfRU" name="Page-26">
    <mxGraphModel grid="1" page="1" gridSize="10" guides="1" tooltips="1" connect="1" arrows="1" fold="1" pageScale="1" pageWidth="827" pageHeight="1169" math="0" shadow="0">
      <root>
        <mxCell id="xaGrfaISxflhIDEgAq_A-0" />
        <mxCell id="xaGrfaISxflhIDEgAq_A-1" parent="xaGrfaISxflhIDEgAq_A-0" />
        <mxCell id="GvcIg3mkbWWIjRYz6Sk2-0" value="&lt;font style=&quot;font-size: 12px&quot;&gt;&lt;span style=&quot;font-size: 12px&quot;&gt;Diagram: Base System Logical Module -&amp;nbsp;&lt;/span&gt;&lt;span style=&quot;font-size: 12px&quot;&gt;Functionality -&amp;nbsp;&lt;/span&gt;Provisioning Users and Roles&lt;/font&gt;" style="text;strokeColor=none;fillColor=none;html=1;fontSize=12;fontStyle=2;verticalAlign=middle;align=left;shadow=0;glass=0;comic=0;opacity=30;fontColor=#808080;" vertex="1" parent="xaGrfaISxflhIDEgAq_A-1">
          <mxGeometry x="120" y="200" width="520" height="40" as="geometry" />
        </mxCell>
      </root>
    </mxGraphModel>
  </diagram>
</mxfile>
